<?xml version="1.0" standalone="no"?>
<!DOCTYPE svg PUBLIC "-//W3C//DTD SVG 20010904//EN"
 "http://www.w3.org/TR/2001/REC-SVG-20010904/DTD/svg10.dtd">
<svg version="1.0" xmlns="http://www.w3.org/2000/svg"
 width="543.000000pt" height="543.000000pt" viewBox="0 0 543.000000 543.000000"
 preserveAspectRatio="xMidYMid meet">
<metadata>
Created by potrace 1.14, written by Peter Selinger 2001-2017
</metadata>
<g transform="translate(0.000000,543.000000) scale(0.100000,-0.100000)"
fill="#000000" stroke="none">
<path d="M0 2720 l0 -2710 2710 0 2710 0 -2 2707 -3 2708 -2707 3 -2708 2 0
-2710z m655 2298 c23 -21 60 -150 346 -1213 177 -655 323 -1192 325 -1194 2
-2 6 -2 8 0 3 2 154 540 336 1194 247 890 336 1195 352 1212 20 21 30 23 129
23 88 0 111 -3 129 -18 18 -15 62 -159 240 -801 120 -430 221 -793 224 -807
l6 -24 -134 0 -134 0 -21 78 c-82 299 -299 1064 -305 1069 -3 3 -7 4 -9 2 -2
-2 -152 -533 -333 -1179 -241 -862 -334 -1181 -350 -1200 -20 -23 -30 -25
-119 -28 -108 -4 -146 6 -164 45 -20 44 -791 2798 -791 2826 0 14 6 28 13 30
6 3 60 6 119 6 97 1 109 -1 133 -21z m3255 7 c7 -9 10 -27 6 -47 -3 -18 -105
-382 -225 -808 l-218 -775 -136 -3 c-106 -2 -137 0 -137 10 0 7 96 371 214
808 176 654 218 797 236 812 30 24 240 27 260 3z m-115 -1703 c132 -37 218
-85 305 -171 120 -120 179 -253 201 -458 20 -189 -2 -349 -64 -467 -40 -77
-155 -195 -224 -230 -29 -14 -53 -30 -53 -34 0 -5 23 -14 51 -21 79 -21 198
-84 260 -140 69 -62 142 -167 169 -243 35 -99 43 -189 37 -428 -4 -187 -8
-238 -26 -303 -67 -251 -223 -408 -477 -479 -78 -22 -85 -23 -930 -26 -772 -2
-853 -1 -868 13 -15 15 -16 150 -16 1500 l0 1484 23 16 c20 14 99 15 777 13
744 -4 756 -4 835 -26z"/>
<path d="M2440 2560 l0 -500 588 0 c379 0 609 4 648 11 87 16 174 61 226 117
95 101 122 198 116 407 -4 113 -9 151 -27 196 -47 121 -119 196 -229 241 l-57
23 -632 3 -633 3 0 -501z m470 262 c30 -110 59 -200 65 -201 5 -1 34 88 64
198 l54 201 134 0 c97 0 133 -3 133 -12 0 -23 -222 -803 -237 -831 -19 -38
-49 -47 -148 -47 -92 0 -129 10 -144 38 -9 17 -241 830 -241 846 0 3 60 6 133
6 l132 0 55 -198z"/>
<path d="M2440 1190 l0 -590 668 0 c404 0 693 4 732 10 169 27 292 136 337
300 26 94 26 466 0 560 -45 164 -168 273 -337 300 -39 6 -328 10 -732 10
l-668 0 0 -590z"/>
</g>
</svg>
